<svg xmlns="http://www.w3.org/2000/svg" width="1500" height="844" version="1.2" viewBox="0 0 1500 844"><title>2642069-ai</title><defs><clipPath id="cp1" clipPathUnits="userSpaceOnUse"><path d="m1387.47 859.08h-1142.94c-13.55 0-24.54-10.98-24.54-24.53v-713.97c0-13.55 10.99-24.53 24.54-24.53h1142.94c13.56 0 24.54 10.98 24.54 24.53v713.97c0 13.55-10.98 24.53-24.54 24.53z"/></clipPath><linearGradient id="g1" x1="-231.8" x2="-205.5" y1="1008.4" y2="637.3" gradientUnits="userSpaceOnUse"><stop offset="0" stop-color="#216158"/><stop offset="1" stop-color="#9ccf78"/></linearGradient><linearGradient id="g2" x1="1058" x2="1080.4" y1="751.7" y2="754" gradientUnits="userSpaceOnUse"><stop offset="0" stop-color="#323a44"/><stop offset="1" stop-color="#101f36"/></linearGradient><linearGradient id="g3" x1="1063.3" x2="1073.9" y1="758.3" y2="759.4" gradientUnits="userSpaceOnUse"><stop offset="0" stop-color="#323a44"/><stop offset="1" stop-color="#101f36"/></linearGradient><linearGradient id="g4" x1="1065.5" x2="1071.2" y1="761" y2="761.5" gradientUnits="userSpaceOnUse"><stop offset="0" stop-color="#323a44"/><stop offset="1" stop-color="#101f36"/></linearGradient><linearGradient id="g5" x1="995.6" x2="1018.1" y1="744.1" y2="746.4" gradientUnits="userSpaceOnUse"><stop offset="0" stop-color="#323a44"/><stop offset="1" stop-color="#101f36"/></linearGradient><linearGradient id="g6" x1="1001" x2="1011.5" y1="750.7" y2="751.8" gradientUnits="userSpaceOnUse"><stop offset="0" stop-color="#323a44"/><stop offset="1" stop-color="#101f36"/></linearGradient><linearGradient id="g7" x1="1003.2" x2="1008.8" y1="753.4" y2="754" gradientUnits="userSpaceOnUse"><stop offset="0" stop-color="#323a44"/><stop offset="1" stop-color="#101f36"/></linearGradient><linearGradient id="g8" x1="755.1" x2="791.7" y1="700.8" y2="744.2" gradientUnits="userSpaceOnUse"><stop offset="0" stop-color="#232237"/><stop offset="1" stop-color="#274260"/></linearGradient><linearGradient id="g9" x1="857.9" x2="908.2" y1="758.3" y2="760.1" gradientUnits="userSpaceOnUse"><stop offset="0" stop-color="#232237"/><stop offset="1" stop-color="#274260"/></linearGradient><linearGradient id="g10" x1="844.5" x2="782.5" y1="632.7" y2="632.7" gradientUnits="userSpaceOnUse"><stop offset="0" stop-color="#232237"/><stop offset="1" stop-color="#274260"/></linearGradient><linearGradient id="g11" x1="861.6" x2="790.8" y1="626.1" y2="626.1" gradientUnits="userSpaceOnUse"><stop offset="0" stop-color="#232237"/><stop offset="1" stop-color="#274260"/></linearGradient><linearGradient id="g12" x1="838.3" x2="923.5" y1="443.4" y2="437.1" gradientUnits="userSpaceOnUse"><stop offset="0" stop-color="#dae2eb"/><stop offset="1" stop-color="#dde7ec"/></linearGradient><linearGradient id="g13" x1="922.1" x2="949.6" y1="427" y2="424.9" gradientUnits="userSpaceOnUse"><stop offset="0" stop-color="#bbccd6"/><stop offset="1" stop-color="#a1bbc3"/></linearGradient></defs><style>.s0{mix-blend-mode:multiply;fill:#bbccd6}.s1{fill:url(#g1)}.s2{fill:#194459}.s3{fill:#fec4ad}.s4{opacity:.4;mix-blend-mode:multiply;fill:#cfcfcf}.s5{fill:#ff4569}.s6{opacity:.4;mix-blend-mode:multiply;fill:#a6aaab}.s7{fill:#0f2c3d}.s8{fill:#133a50}.s9{fill:#4e2728}.s10{fill:#b6c8e1}.s11{fill:#cfcfcf}.s12{fill:url(#g2)}.s13{fill:#616b78}.s14{fill:url(#g3)}.s15{fill:url(#g4)}.s16{fill:url(#g5)}.s17{fill:url(#g6)}.s18{fill:url(#g7)}.s19{fill:#00b76c}.s20{mix-blend-mode:multiply;fill:#cfcfcf}.s21{fill:#002a2f}.s22{mix-blend-mode:multiply;fill:#a6aaab}.s23{fill:#fff}.s24{fill:#fec1b2}.s25{fill:url(#g8)}.s26{fill:url(#g9)}.s27{fill:#feb200}.s28{fill:url(#g10)}.s29{fill:#382728}.s30{fill:url(#g11)}.s31{fill:none;stroke:#382728;stroke-width:.5}.s32{fill:#575472}.s33{fill:#45425d}.s34{fill:#e3ebec}.s35{fill:#db2a2a}.s36,.s37{opacity:.6;mix-blend-mode:multiply;fill:#bec2c8}.s37{opacity:.9}.s38{fill:#c8efff}.s39{fill:#f3510f}.s40{fill:#62bff9}.s41{fill:#abccda}.s42{fill:#3385da}.s43,.s44{mix-blend-mode:multiply;fill:#bec2c8}.s44{fill:#62bff9}.s45{fill:#006f7d}.s46{opacity:.7;mix-blend-mode:multiply;fill:#bec2c8}.s47,.s48{opacity:.3;fill:url(#g12)}.s48{mix-blend-mode:multiply;fill:url(#g13)}</style><g id="OBJECTS"><g id="&lt;Clip Group&gt;" clip-path="url(#cp1)"><g id="&lt;Group&gt;"><g id="&lt;Group&gt;"><path id="&lt;Path&gt;" d="m1314.8 760.1c19.1-0.5 106.4-0.3 111.1 1.6 5.1 2 2.5 18.4-17.3 20.1-43.5 3.5-188.3-0.4-234.9 1.2-217.2 7.4-328.3 9.8-579.9 9-81.6-0.2 100.6-12.8 192.7-16.4 127.9-4.9 342.6-11.4 528.3-15.5z" class="s0"/></g></g><g id="&lt;Group&gt;"><g id="&lt;Group&gt;"><g id="&lt;Group&gt;"><path id="&lt;Path&gt;" d="m-97.8 677c-1-57.5 72.8-10.2 89 4.6 18.1 16.6 36.6 40.3 59.1 52.6 16.5 9.1 34.4 12.3 51.4 20.4 17 8.1 34.8 24.2 38.8 44.6 4 20.9-6.5 42.9 4.9 60.3 6.8 10.3 18.6 12.9 27.5 18.6 36.9 23.5 47.5 87 21.5 125.5-21.9 32.5-66.4 31.3-99.4 15.8-28.4-13.3-54.9-41.3-50-74.3 3.5-23.8 23-49.3 10.1-70.8-11.5-19.1-38.6-15.3-53.2-30-20.1-20.3-3.4-62.5-19.3-85.9-21.3-31.1-79.6-41.6-80.4-81.4z" class="s1"/></g><g id="&lt;Group&gt;"><path id="&lt;Path&gt;" d="m-41.3 690.1c29.5 24.2 55.3 52.6 79.5 82.1 24.2 29.6 46 61 66.5 93.2l14.6 24.7c2.3 4.1 4.9 8.2 7.1 12.4l6.8 12.6c4.5 8.4 9.2 16.8 13.5 25.3q6.3 12.8 12.4 25.8l6.2 12.9 5.7 13.1 11.3 26.3c0.9 2.2 1.9 4.4 2.7 6.6l2.5 6.7 5 13.4 9.9 26.9-10.9-26.5-5.4-13.2-2.7-6.6c-0.9-2.2-2-4.3-2.9-6.5l-11.8-26-5.9-13.1-6.4-12.7q-6.5-12.8-12.8-25.6c-4.4-8.4-9-16.7-13.6-25.1l-6.8-12.5c-2.3-4.2-4.8-8.2-7.2-12.3l-14.7-24.5c-20.1-32.3-41.9-63.5-65.5-93.4l-8.8-11.2c-3-3.7-6.1-7.3-9.2-10.9-3.1-3.6-6.1-7.3-9.2-10.9l-9.6-10.6c-12.8-14.1-26-27.8-40.3-40.4z" class="s2"/></g></g></g><g id="&lt;Group&gt;"><g id="&lt;Group&gt;"><g id="&lt;Group&gt;"><path id="&lt;Path&gt;" d="m1202.4 503.1l-7.8-1.1-6 3.6-5.6-0.1-1.9 3.9-1.6-0.1-0.3-2.9-3.3 1.8-2.1-1.2 3.6-2.3-2.9 0.3-2.1 1-2.1-1.7 1.8-1.6-2.8-0.1-1.4-0.9c0 0 7.6-7.2 10.7-8.3 3-1.1 17.5 1 17.5 1z" class="s3"/><path id="&lt;Path&gt;" d="m1305.9 416.2c-5.2 25.6-20 44-41.7 61.3-8.8 7-63 22.8-63 22.8l-5.1-5.9c0 0 27.6-14.7 54-34.5 8.1-6 24.6-49.6 37-65.3 6.8-8.5 22.3 4.5 18.8 21.6z" class="s3"/><path id="&lt;Path&gt;" d="m1305.9 416.2c-5.2 25.6-20 44-41.7 61.3-8.8 7-63 22.8-63 22.8l-5.1-5.9c0 0 27.6-14.7 54-34.5 8.1-6 24.6-49.6 37-65.3 6.8-8.5 22.3 4.5 18.8 21.6z" class="s4"/><path id="&lt;Path&gt;" d="m1277.8 465.7c-6-6.6-12.2-12.9-18.8-18.9 8.6-15.8 19.7-40.9 28.5-51.9 6.9-8.5 22.3 4.7 18.7 21.8-4.2 19.7-14.1 35.1-28.4 49z" class="s5"/><path id="&lt;Path&gt;" d="m1277.8 465.7c-6-6.6-12.2-12.9-18.8-18.9 8.6-15.8 19.7-40.9 28.5-51.9 6.9-8.5 22.3 4.7 18.7 21.8-4.2 19.7-14.1 35.1-28.4 49z" class="s6"/></g><g id="&lt;Group&gt;"><path id="&lt;Path&gt;" d="m1375.5 698.3l29.5 27.8-17.5 20.5-2.5-21.2-16.8-12z" class="s7"/><path id="&lt;Path&gt;" d="m1311.5 508.8c0 0 12.4 3.9 22.2 20.7 9.9 16.7-14.7 95.2-14.7 95.2l72.2 89-12 11.5c0 0-98.5-72.1-98.7-79.2-0.2-7.1 3.9-86.7 2-96.4z" class="s7"/></g><g id="&lt;Group&gt;"><path id="&lt;Path&gt;" d="m1257 740l-7.2 30.9-26.4 0.7 15.9-12 2.5-21.7z" class="s8"/><path id="&lt;Path&gt;" d="m1332.3 515.9c0 0 5.8 10.5 4.4 22.6-3.3 28.2-53.8 119.1-53.8 119.1 0 0-5 28.8-12.4 53.8-6.3 21.6-13.1 42.7-13.1 42.7l-18.6-4.2c0 0 7.6-93.9 8.2-104 1.1-18.9 22.1-107.1 31.8-116.4 9.7-9.3 53.5-13.6 53.5-13.6z" class="s8"/></g><path id="&lt;Path&gt;" d="m1265 344.5l23.4 7.9 0.4 21.7c0 0-3.5 9.7-9.3 14.6-5.7 5-8.3 8.9-12.2 9.2-3.9 0.3-10 2.6-11.4-0.7-3-7.4-6.2-11.3-6.2-11.3 0 0-6.3-1-4.8-3.6 1.4-2.6 4.4-8.7 3.1-12.4-1.3-3.7-1.6-9-2.5-14.7z" class="s3"/><path id="&lt;Path&gt;" d="m1246.1 359.1c0 0-11-7.9 0.2-16 8.3-6.2 27.8-8.1 36.2-5.5 8.5 2.6 10.4 8 9.2 8.8 0 0 5 2.5 7.3 12.7 2.2 10.1-11.5 27.5-11.8 32.8l-8.7-11.4c0 0 6.6-5.1 5.6-11.1-1.1-6-9.5-8-10.4-2.2-0.9 5.8-0.2 8.7-0.2 8.7 0 0-4.8-1.8-5.5-5.6-1.6-9.1 0.5-17.2-6.5-16.3-5 0.6-8.9 5.3-15.4 5.1z" class="s9"/><path id="&lt;Path&gt;" d="m1279.8 378.3c0 0 11.4 15.1 13.4 17.3 2 2.2 12.6 5.6 12.6 5.6 0 0 17.5 14.7 0.5 21.8-17.1 7.1-36.9 2.6-36.9 2.6 0 0-0.8-15.1-0.1-19.2 0.8-4.1-3.9-13.3-3.9-13.3z" class="s3"/><path id="&lt;Path&gt;" d="m1330.6 439.7c3.2 17.4 19.5 111.4 13.5 117.6-6 6.2-28.5 6.5-44.2 2.2-15.8-4.2-28.8-16.1-28.8-16.1 0 0 0.2-42.2-2.3-62.8-3-25.9-5.5-62.8-5.5-62.8l5.6-12.4 1.3 9.6 20.9-24.7 7.1 2c0 0 9.6 8.9 12.2 11.3 8.7 8 17 18.7 20.2 36.1z" class="s5"/><path id="&lt;Path&gt;" d="m1276.8 499.5q-3 5.6-6.4 10.9c-0.1-9.6-0.5-20.7-1.6-29.8-1.3-11.6-3-25.7-4.4-37.7 11.5-7.4 22-16.2 31.7-26 2.1 8.8 12.1 5.9 13.2 14.9 2.6 24.8-24 49.3-32.5 67.7z" class="s4"/><g id="&lt;Group&gt;"><g id="&lt;Group&gt;"><g id="&lt;Group&gt;"><path id="&lt;Path&gt;" d="m1116 674.3q-0.3 0-0.6 0c-1.6-0.4-2.7-1.9-2.3-3.6l32-155.7c0.8-4.1 4-7.3 8.2-8.2l34.9-8.5c1.6-0.4 3.2 0.6 3.6 2.2 0.4 1.6-0.6 3.3-2.2 3.7l-35.1 8.5c-1.8 0.4-3.2 1.7-3.5 3.5l-32.1 155.7c-0.3 1.5-1.5 2.4-2.9 2.4z" class="s10"/></g></g><g id="&lt;Group&gt;" style="mix-blend-mode:multiply"><g id="&lt;Group&gt;"><path id="&lt;Path&gt;" d="m1116 674.3q-0.3 0-0.6 0c-1.6-0.4-2.7-1.9-2.3-3.6l32-155.7c0.8-4.1 4-7.3 8.2-8.2l34.9-8.5c1.6-0.4 3.2 0.6 3.6 2.2 0.4 1.6-0.6 3.3-2.2 3.7l-35.1 8.5c-1.8 0.4-3.2 1.7-3.5 3.5l-32.1 155.7c-0.3 1.5-1.5 2.4-2.9 2.4z" class="s11"/></g></g><g id="&lt;Group&gt;"><path id="&lt;Path&gt;" d="m1195.1 505.6l-26 4c-1 0.2-1.9-0.5-2.1-1.5l-0.7-4.3c-0.1-1 0.6-1.9 1.6-2.1l25.9-4c1-0.2 2 0.5 2.1 1.5l0.7 4.3c0.1 1-0.6 1.9-1.5 2.1z" class="s10"/></g></g><g id="&lt;Group&gt;"><path id="&lt;Path&gt;" d="m1170.7 501.2c0 0 8.1-6.7 11.2-7.7 3.1-0.9 17.4 2.1 17.4 2.1 0 0 28.4-13.1 56-31.2 8.4-5.5 27.6-48.1 40.8-63 7.3-8.1 22.1 5.8 17.6 22.7-6.8 25.2-25 41.3-47.7 57.3-9.2 6.4-33.3 13.7-45.6 16.5-5.7 1.3-23 5.1-23 5.1l-6.2 3.3-5.6-0.4-2.2 3.8-1.5-0.2-0.1-3-3.4 1.7-2-1.4 3.7-2.1-2.9 0.2-2.2 0.8-2-1.8 1.9-1.5-2.8-0.3z" class="s3"/><path id="&lt;Path&gt;" d="m1288.4 466.3c-1.7-2-3.6-3.8-5.5-5.7-4.9-4.6-10-9-15.3-13.3 9-15.2 20-36.3 28.5-45.9 7.3-8.1 22.1 5.8 17.6 22.7-4.6 16.9-13.2 30.3-25.3 42.2z" class="s5"/></g></g><g id="&lt;Group&gt;"><g id="&lt;Group&gt;"><g id="&lt;Group&gt;"><path id="&lt;Path&gt;" d="m1078.3 765.1c-0.6 5.7-5.6 9.8-11.3 9.2-5.6-0.6-9.8-5.6-9.2-11.3 0.6-5.6 5.7-9.7 11.3-9.2 5.7 0.6 9.8 5.7 9.2 11.3z" class="s12"/><path id="&lt;Path&gt;" d="m1074.4 764.7c-0.4 3.5-3.5 6.1-7 5.7-3.5-0.3-6-3.5-5.7-7 0.4-3.5 3.5-6 7-5.7 3.5 0.4 6.1 3.5 5.7 7z" class="s13"/><path id="&lt;Path&gt;" d="m1072.9 764.6c-0.3 2.6-2.7 4.5-5.3 4.3-2.7-0.3-4.6-2.7-4.3-5.3 0.2-2.7 2.6-4.6 5.3-4.3 2.6 0.3 4.5 2.6 4.3 5.3z" class="s14"/></g><path id="&lt;Path&gt;" d="m1067.6 769c-2.8-0.3-5.1-2.4-5.6-5.2l-4.2-24.7 25.4 2.6-9.2 23.3c-1 2.7-3.6 4.3-6.4 4z" class="s10"/><path id="&lt;Path&gt;" d="m1070.6 764.3c-0.1 1.5-1.4 2.5-2.8 2.4-1.4-0.2-2.5-1.5-2.3-2.9 0.1-1.4 1.4-2.4 2.8-2.3 1.4 0.1 2.5 1.4 2.3 2.8z" class="s15"/></g><g id="&lt;Group&gt;"><g id="&lt;Group&gt;"><path id="&lt;Path&gt;" d="m1015.9 757.5c-0.5 5.7-5.6 9.8-11.2 9.2-5.7-0.6-9.8-5.6-9.2-11.3 0.6-5.6 5.6-9.7 11.3-9.1 5.6 0.5 9.7 5.6 9.1 11.2z" class="s16"/><path id="&lt;Path&gt;" d="m1012.1 757.1c-0.4 3.5-3.5 6.1-7 5.7-3.5-0.3-6.1-3.5-5.7-7 0.3-3.5 3.5-6 7-5.7 3.5 0.4 6 3.5 5.7 7z" class="s13"/><path id="&lt;Path&gt;" d="m1010.5 757c-0.3 2.6-2.6 4.6-5.3 4.3-2.6-0.3-4.6-2.7-4.3-5.3 0.3-2.7 2.7-4.6 5.3-4.3 2.7 0.3 4.6 2.6 4.3 5.3z" class="s17"/></g><path id="&lt;Path&gt;" d="m1005.2 761.4c-2.8-0.3-5.1-2.4-5.5-5.2l-4.3-24.7 25.5 2.6-9.2 23.4c-1.1 2.6-3.7 4.2-6.5 3.9z" class="s10"/><path id="&lt;Path&gt;" d="m1008.3 756.8c-0.2 1.4-1.4 2.4-2.9 2.3-1.4-0.2-2.4-1.5-2.3-2.9 0.2-1.4 1.5-2.4 2.9-2.3 1.4 0.2 2.4 1.4 2.3 2.9z" class="s18"/></g><g id="&lt;Group&gt;"><g id="&lt;Group&gt;"><path id="&lt;Path&gt;" d="m978.6 728.3l9.1-232 157.8 18.3-44.2 227.9c-1.4 7-7.9 11.7-14.9 10.9l-95.8-11.1c-7.1-0.8-12.3-6.9-12-14z" class="s19"/><path id="&lt;Path&gt;" d="m985.8 530.3l1.9-34 157.8 18.3-5.9 33.5z" class="s20"/><path id="&lt;Path&gt;" d="m1009.7 435.3c2.3-6 8.4-9.6 14.8-8.9l101.1 11.7c6.4 0.8 11.5 5.7 12.4 12.1l8.1 57.4-157.4-18.3z" class="s19"/><path id="&lt;Path&gt;" d="m1144.5 495.8l1.6 11.8-157.4-18.3 4.3-11.1z" class="s4"/><path id="&lt;Path&gt;" d="m1026.5 465.3l1.1-9c0.4-3.3 3.3-5.6 6.6-5.2l76.3 8.8c3.3 0.4 5.7 3.4 5.3 6.7l-1 8.9c-0.4 3.3-3.4 5.7-6.7 5.3l-76.3-8.8c-3.3-0.4-5.6-3.4-5.3-6.7z" class="s21"/><path id="&lt;Path&gt;" d="m1114.9 474.7l-0.1 0.8c-0.4 3.3-3.4 5.7-6.7 5.3l-76.3-8.8c-3.3-0.4-5.6-3.4-5.3-6.7l0.1-0.8z" class="s22"/><path id="&lt;Path&gt;" d="m976.4 492c0.5-4.8 4.9-8.2 9.7-7.7l163.7 19c4.8 0.5 8.2 4.9 7.7 9.7-0.6 4.8-4.9 8.3-9.7 7.7l-163.7-19c-4.8-0.5-8.3-4.9-7.7-9.7z" class="s19"/></g><g id="&lt;Group&gt;"><path id="&lt;Path&gt;" d="m1052.4 554.4q0.3 0 0.5 0.1 7.3 0.8 14.6 1.7c1.5 0.2 3 0.4 4.6 0.6-0.1 0-0.1 0.1-0.2 0.1q0 0-0.1 0c-2 0.4-3.8 1.3-5.5 2.5-1.8 1.4-3.3 3.2-4.7 5q-3.6 5.1-7.2 10.3-0.7 1-1.4 2 2.3 1.9 4.5 3.7 0 0.1 0 0.1-2.1-0.2-4.2-0.5-6.7-0.7-13.4-1.4c-0.3-0.1-0.4-0.1-0.5-0.3q-3.7-8.2-7.4-16.4c-0.1-0.1-0.1-0.1-0.1-0.3 1.7 1.2 3.5 2.4 5.2 3.6q0.1-0.1 0.1-0.1c1.6-2.3 3.2-4.6 4.8-6.9 1.5-2.2 3.7-3.5 6.3-4 0.5-0.1 1-0.1 1.5-0.1q1.3 0.1 2.6 0.3z" class="s23"/><path id="&lt;Path&gt;" d="m1097.3 603.1c-0.2 0.4-0.3 0.9-0.5 1.3-1.3 2.7-3.5 4.4-6.3 5.3-2 0.7-4 0.6-6 0.5-1.3 0-2.6-0.2-3.9-0.3-0.3-0.1-0.4-0.2-0.5-0.4q-2.7-5.8-5.4-11.6-0.1-0.2-0.1-0.3c-1.9 0.7-3.7 1.4-5.6 2.2 0.1-0.1 0.1-0.2 0.1-0.2q5.2-7.4 10.4-14.9c0.2-0.2 0.4-0.6 0.6-0.8 0.3-0.1 0.7 0.1 1.1 0.1q8.5 1.1 17.1 2.1c0.1 0.1 0.2 0.1 0.4 0.1-1.9 1.2-3.8 2.3-5.7 3.5q0.1 0.2 0.1 0.3 1.5 4 3.1 8 0.5 1.5 1 3c0.1 0.4 0.1 0.8 0.2 1.3q-0.1 0.4-0.1 0.8z" class="s23"/><path id="&lt;Path&gt;" d="m1018.2 593q0-0.1 0.1-0.3c0.1-0.5 0.2-1 0.5-1.5q4.4-6.4 8.6-12.9 0.3-0.3 0.5-0.7 7.9 6.2 15.7 12.3-0.1 0.1-0.1 0.2-4.9 7-9.7 13.9c-0.2 0.2-0.3 0.3-0.5 0.2-2.5-0.2-4.9-0.6-7.3-1.4-2-0.8-3.9-1.7-5.5-3.2-1.2-1.2-2.1-2.6-2.4-4.3 0-0.5 0-0.9 0-1.3q0-0.5 0.1-1z" class="s23"/><path id="&lt;Path&gt;" d="m1046.3 601.3q3.5 8.4 6.9 16.7c0.1 0.1 0 0.3 0 0.4q-4.8 6.7-9.6 13.5c-0.3 0.5-0.7 0.9-1.1 1.5 0.1-0.6 0.1-1 0.1-1.5q0.2-2.3 0.4-4.7c0.1-0.2 0-0.3-0.3-0.4q-3.8-0.4-7.7-0.8c-0.6-0.1-1.2-0.2-1.7-0.3-2.9-0.9-5-2.6-6.2-5.4q-3.5-8.9-6.9-17.7-0.6-1.4-1.1-2.7 0.1 0 0.2 0.1c1.8 2.2 4.2 3.6 6.9 4.4 1.8 0.6 3.6 0.9 5.5 1.2q6.5 0.7 13.1 1.5 0.1 0 0.2 0 0.3 0 0.3-0.2 0.1-0.5 0.2-1.1c0.2-1.5 0.5-3 0.8-4.6 0 0.1 0 0.1 0 0.1z" class="s23"/><path id="&lt;Path&gt;" d="m1095 608.8q-6.5 9.2-12.9 18.5c-0.6 0.8-1.4 1.5-2.3 1.9-2 1.1-4.2 1.3-6.3 1.2-1.3-0.1-2.6-0.2-3.8-0.4q-5.6-0.6-11.1-1.2-0.2-0.1-0.4-0.1 1.2-9.9 2.3-19.8 0.2 0 0.3 0 3.1 0.3 6.3 0.7 4.4 0.5 8.8 0.9c2.4 0.3 4.9 0.6 7.3 0.9 1.3 0.1 2.7 0.3 4 0.2 1.9-0.1 3.8-0.6 5.4-1.5 0.9-0.4 1.7-1 2.6-1.5q-0.1 0-0.2 0.2z" class="s23"/><path id="&lt;Path&gt;" d="m1068.4 583.3q-3.5-7.7-7.1-15.4c-0.1-0.2-0.1-0.3 0-0.5 1.5-2.3 3.3-4.5 5.4-6.3 1.5-1.2 3-2.3 4.9-2.9 2.3-0.8 4.5-0.6 6.5 1 0.5 0.4 1 0.8 1.3 1.4q3.2 6.3 6.3 12.6 0.5 1.1 1 2.2-9.1 4-18.2 8.1 0-0.1-0.1-0.2z" class="s23"/></g></g></g></g><g id="&lt;Group&gt;"><g id="&lt;Group&gt;"><path id="&lt;Path&gt;" d="m771.4 666.3c6.5-10.5 14.3-16.3 14-19.4-0.5-6 2.3-82 1.6-89.6l45.8 12.7c0 0-19.7 71.9-20.7 80.5-0.1 1.6-1.5 6.9-3.4 10.1-5.5 9.5-53.4 60-55.7 66.8-2.3 6.8 6.1 18.4 6.1 18.4 0 0-12.4-1.8-15.9-7.7-3.5-5.8-4.6-14.5-4.6-14.5 10.5-7.3 22.9-41.3 32.8-57.3z" class="s24"/><path id="&lt;Path&gt;" d="m740.6 721.3c0 0 2.8 10.2 7.1 17.1 4.3 7 10.7 5.8 10.7 5.8 0 0 3.4 8.1 8.1 11.7 4.7 3.5 2.8 6.8 2.8 6.8 0 0-9.7 1.1-20.3-8.7-10.7-9.9-17.6-24.2-17.6-24.2z" class="s25"/></g><g id="&lt;Group&gt;"><path id="&lt;Path&gt;" d="m845.9 698.7c-0.5-18.4-2.6-30.4-5.7-37.5-13.1-30.4-33.9-95-33.9-95l41.7-7.4c0 0 15.4 97.3 16.6 100.9 4.9 14.9 2.7 88.1 6.3 94.4 3.5 6.4 17.9 8 17.9 8 0 0-9.8 8.1-16.6 6.7-6.8-1.4-14-6.5-14-6.5 1.6-12.8-11.9-44.5-12.3-63.6z" class="s24"/><path id="&lt;Path&gt;" d="m857.9 759.3c0 0 9.4 4.8 17.6 6.3 8.2 1.5 11.7-4.1 11.7-4.1 0 0 13.2 3 18.9 4.9 6.7 2.2-9.5 7.8-24.1 9.1-14.6 1.2-22.6-0.4-22.6-0.4z" class="s26"/></g><g id="&lt;Group&gt;"><path id="&lt;Path&gt;" d="m820.7 503.1l-19.3 29.2c-16.8-1-20.6-12.2-16.3-17 11.4-12.5 35.6-12.2 35.6-12.2z" class="s27"/></g><path id="&lt;Path&gt;" d="m836.2 580.1c-0.8 0.4 9 49.8 8.3 50-24.6 6.8-59.7-1.8-62-1.7 3.4-13.5 6.3-69.2 3.1-82.6-5.7-23.2 6.6-30.6 17.8-42.2 11.2-11.6 26.3-9 26.3-9l5.1 33.9c0 0 6.6 11.8 6.9 24.9 0.2 4.8-0.2 14.3-0.8 24.6q-2.4 1.1-4.7 2.1z" class="s28"/><path id="&lt;Path&gt;" d="m829.4 352.2c0 0 13.7-0.3 16.2 14.7 2.6 15.1-2.1 26.9 3.4 48.3 5.6 21.3-18.6 42.2-37.9 24.5-19.4-17.7-30.2-20.3-30.2-20.3l26.1-36.6z" class="s29"/><path id="&lt;Path&gt;" d="m839.3 427.3l7.5 26.2c0 0-3.7 13.3-14.3 11.6-10.6-1.7-28.2-39.8-23.8-45.6 4.3-5.8 6.7-13.2 6.7-13.2l14.5 3.1c-2.7 6.4 2.6 7.5 4.2 10.1z" class="s24"/><path id="&lt;Path&gt;" d="m833.9 403.4c-3.5 2.9-7 13.2-6.8 18.7l-22.8 4.7c0 0 5.1-14.7 7.3-25.7 2.3-11.1-0.1-15.8-0.1-15.8z" class="s24"/><path id="&lt;Path&gt;" d="m841.7 362.6c2.5 3.2 3.4 8 3.6 10.2 0.2 2.3-0.8 4.5 0.6 6.5 1.4 2 6.1 5.3 6.6 6.4 0.5 1.2-2.8 3.6-3.1 4.5-0.4 0.8-1.6 7.5-2.2 10.9-0.6 3.4-8.2 3.5-13.3 2.3-5-1.2-12.5-5.5-15.3-7.2-2.9-1.6-7.1-10.9-7.1-10.9l-3.7-18.1c0 0 3-10 14.3-10 11.4-0.1 16.6 1.6 19.6 5.4z" class="s24"/><path id="&lt;Path&gt;" d="m838.7 359.5c0 0-4.6 22.8-15.9 27.6 0 0 2.6 17.6-1.7 28.8-3.4 8.6-12.4 3.6-12.4 3.6-10.1 10.7-9.8 22.6-6.8 31.4 0 0-13.5 1.2-20.4-13.5-8.1-17.2 2.6-27.3 6.2-38.7 3.6-11.4 1.2-28.8 15-40.4 23-19.3 36 1.2 36 1.2z" class="s29"/><path id="&lt;Path&gt;" d="m804 618.3c-5.7-10.7-13.8-63.5-13.1-74 1-17.3 10.5-27.3 24-31.5 10.7-3.3 26.7 3.1 26.7 3.1l4.8 26.1c0 0 10.8 55.4 15.2 82.4-1 0.6-38.5 5.8-57.6-6.1z" class="s30"/><path id="&lt;Path&gt;" d="m808.7 419.5c0 0 7.2 3.2 13.6 10.6 6.3 7.5 15.1 16.7 17.5 15.7 2.4-0.9-1.5-23-5.7-26.3l6.4 3.8c0 0 5 17.9 8.2 23.8 3.2 5.8 8 13.9 7.5 21.5-0.4 7.6-5.5 18.3-5.1 24.8 0.5 6.6-1.1 29.5-1.1 29.5 0 0-13.2 4.6-29.4 3.3-16.3-1.2-30.2-14-35.5-10.9 0 0 8-12.6 12.9-23.4 4.8-10.9-1.7-23-4.2-36.1-2.4-13.1-5.5-20.5-0.8-27 4.6-6.6 15.7-9.3 15.7-9.3z" class="s27"/><path id="&lt;Path&gt;" d="m850 522.9c0 0-13.2 4.6-29.4 3.3q-1.2-0.1-2.3-0.2c-7.7-9.3-15.6-18.3-23.8-27.1 1.3-2.3 2.4-4.7 3.5-7 4.8-10.9-1.7-23-4.2-36.1-2.4-13.1-5.5-20.5-0.8-27 2.5-3.6 6.9-6 10.4-7.5 4.3 12.7 9.4 25.1 17 36 8.8 12.5 18.7 23.5 31 32.1-0.2 1.5-0.3 2.8-0.3 4 0.5 6.6-1.1 29.5-1.1 29.5z" class="s20"/><path id="&lt;Path&gt;" d="m837.3 357.4c3.2 4 3 10.1 0.3 14.5-2.7 4.4-7.5 7.1-12.5 8.3" class="s31"/><g id="&lt;Group&gt;"><path id="&lt;Path&gt;" d="m923.6 445.9l-85-5.7 27.3-17.1 83.5 3.5z" class="s32"/><path id="&lt;Path&gt;" d="m866.6 442.2l-28-2 27.3-17.1z" class="s33"/><g id="&lt;Group&gt;"><g id="&lt;Group&gt;"><g id="&lt;Group&gt;"><g id="&lt;Group&gt;"><path id="&lt;Path&gt;" d="m882.4 458.8q-1.7-0.9-3.1-1.9c-4.2-2.8-6.9-5.9-6.3-7.5l1.2-2.8 5.9-12.1 1-2.5 0.7-1.5 6.2-14.3v-0.1l1.2-2.7 0.6-1.4 0.1-0.3 0.5-1.1h0.1l2.1 1.1q0.8 0 1.7 0 0.4 0 0.8 0.1c2.4 0.3 5.2 1.1 8.2 2.5q1.1 0.5 2.2 1.1 1.1 0.5 2.1 1.1 0.9 0.6 1.7 1.1c2 1.5 3.8 3 5 4.4q0.3 0.4 0.6 0.7 0.5 0.7 0.9 1.4l2.1 1.1h0.1l-0.6 0.9-0.3 0.5-0.8 1.2-1.6 2.6-3.1 4.7-5.1 8.3-0.8 1.4-7.3 11.9-1.7 2.6-1.3 2c-1.2 1.8-7 0.6-13-2.5z" class="s34"/><path id="&lt;Path&gt;" d="m906.5 443.4c-2.4 0.8-8-0.7-13.9-3.8q-2.2-1.2-4.1-2.5c-3.5-2.3-6-4.8-6.7-6.6q-0.2-0.5-0.2-0.9 0-0.3 0.1-0.6l5.8-13.4q0 0 0.1 0.1 0.2 0.2 0.4 0.5c1.9 2 5.1 4.5 9.1 6.8q1.6 1 3.3 2c5.5 2.9 10.8 4.8 14.3 5.4q0.3 0 0.6 0.1h0.2l-8 12.3q-0.2 0.2-0.4 0.4-0.3 0.1-0.6 0.2z" class="s35"/></g><path id="&lt;Path&gt;" d="m879.3 456.9c-4.2-2.8-6.9-5.9-6.3-7.5l1.2-2.8 5.9-12.1 1-2.5q-0.2-0.6 0-1.2l0.5-1.2q0-0.3 0.1-0.6l5.8-13.4q0 0 0.1 0.1l1.2-3c-0.6-1.1-0.7-2-0.3-2.7l0.6-1.3 0.8-1.3c0.9-1.8 5-1.6 10.2 0.1-3.4 8.3-18.9 44.4-20.8 49.4z" class="s36"/><path id="&lt;Path&gt;" d="m917.1 427.8q-0.4 0-0.8 0c-2.8 0-7-1.1-11.6-3.2q0 0 0 0-1.6-0.7-3.2-1.6-1.7-0.8-3.1-1.8-0.1 0-0.1 0c-4.3-2.6-7.6-5.5-9.1-7.8q-0.2-0.4-0.4-0.7c-0.6-1.1-0.7-2-0.3-2.7l0.6-1.3 0.7-1.3 2.5 1.3q0.2 0 0.5 0.1 0.6 0 1.3 0.1 1 0.2 2.1 0.4c2.4 0.6 5.1 1.6 7.9 3q1.2 0.5 2.4 1.2 1.4 0.7 2.7 1.5 0.9 0.5 1.7 1.1c1.9 1.2 3.5 2.5 4.9 3.7q0.8 0.7 1.5 1.5 0.4 0.5 0.8 0.9 0.2 0.2 0.3 0.5l2.5 1.3-0.7 1.3q0 0 0 0l-0.7 1.2c-0.4 0.7-1.2 1.1-2.4 1.3z" class="s34"/><path id="&lt;Path&gt;" d="m917.9 426.5q-0.4 0-0.8 0.1-0.5 0-1.2-0.1c-3.4-0.2-8.5-1.9-13.8-4.7q-1.6-0.9-3-1.7c-3.8-2.4-6.9-5-8.6-7.1q-0.4-0.5-0.7-1-0.2-0.4-0.4-0.7c-0.5-1-0.6-1.9-0.3-2.6l0.8-1.3 2.4 1.3q0.2 0 0.5 0.1 0.6 0 1.3 0.1 1 0.2 2.1 0.4c2.4 0.6 5.1 1.6 7.9 3q1.2 0.5 2.4 1.2 1.4 0.7 2.7 1.5 0.9 0.5 1.7 1.1c1.9 1.2 3.5 2.5 4.9 3.7q0.8 0.7 1.5 1.5 0.4 0.5 0.8 0.9 0.2 0.2 0.3 0.5l2.5 1.3-0.7 1.3q0 0 0 0c-0.4 0.7-1.2 1.1-2.3 1.2z" class="s35"/><path id="&lt;Path&gt;" d="m917.9 426.5q-0.4 0-0.8 0.1-0.5 0-1.2-0.1c-3.4-0.2-8.5-1.9-13.8-4.7q-1.6-0.9-3-1.7c-3.8-2.4-6.9-5-8.6-7.1q-0.4-0.5-0.7-1-0.2-0.4-0.4-0.7c-0.5-1-0.6-1.9-0.3-2.6l0.8-1.3 2.4 1.3q0.2 0 0.5 0.1 0.6 0 1.3 0.1 1 0.2 2.1 0.4c2.4 0.6 5.1 1.6 7.9 3q1.2 0.5 2.4 1.2 1.4 0.7 2.7 1.5 0.9 0.5 1.7 1.1c1.9 1.2 3.5 2.5 4.9 3.7q0.8 0.7 1.5 1.5 0.4 0.5 0.8 0.9 0.2 0.2 0.3 0.5l2.5 1.3-0.7 1.3q0 0 0 0c-0.4 0.7-1.2 1.1-2.3 1.2z" class="s36"/><path id="&lt;Path&gt;" d="m918 425.2q-0.1 0-0.1 0-0.1 0-0.3 0-1.3 0-2.9-0.3c-3.3-0.6-7.5-2.1-11.9-4.4q-1.5-0.8-2.8-1.7c-4.6-2.8-8.1-5.8-9.5-8.2q-0.1 0-0.1-0.1c-0.7-1.2-1-2.3-0.5-3.1 1.2-2.3 7.6-1.4 15 2q1.5 0.7 3 1.5 1.8 1 3.4 2 0.9 0.6 1.8 1.2c5.6 3.8 8.9 7.8 7.8 9.9q0 0 0 0c-0.5 0.8-1.5 1.2-2.9 1.2z" class="s35"/><path id="&lt;Path&gt;" d="m917.2 422c-0.9 1.7-6.9 0.3-13.5-3.2-6.5-3.5-11.1-7.7-10.2-9.4 0.9-1.7 7-0.3 13.5 3.2 6.5 3.5 11.1 7.7 10.2 9.4z" class="s36"/></g><path id="&lt;Path&gt;" d="m908.4 418.5c0 0-0.2 0.3-1.1-0.1-0.9-0.5-0.7-0.9-0.7-0.9l14.1-13.8 1.7 1.7z" class="s34"/><path id="&lt;Path&gt;" d="m922.4 405.3c-0.2 0.2-0.8 0-1.2-0.4-0.5-0.5-0.7-1-0.4-1.2 0.2-0.2 0.7 0 1.2 0.4 0.4 0.5 0.6 1 0.4 1.2z" class="s34"/><path id="&lt;Path&gt;" d="m922.4 405.3c-0.2 0.2-0.8 0-1.2-0.4-0.5-0.5-0.7-1-0.4-1.2 0.2-0.2 0.7 0 1.2 0.4 0.4 0.5 0.6 1 0.4 1.2z" class="s37"/></g><g id="&lt;Group&gt;"><path id="&lt;Path&gt;" d="m942.8 433.3l-10.4 19.2c-0.6 1-2.1 1.3-3.4 0.5l-13.2-7.2c-1.2-0.7-1.8-2.1-1.3-3.1l10.5-19.1c1.2-2.2 6.1-8.6 9-9.1l0.8-1.4 11.6 6.3-0.8 1.5c1.2 2.6-1.6 10.3-2.8 12.4z" class="s38"/><path id="&lt;Path&gt;" d="m945.6 420.9l-11.6-6.4 1-1.8 11.6 6.4z" class="s39"/><path id="&lt;Path&gt;" d="m947.1 419.6l-12.9-7c-0.2-0.1-0.3-0.5-0.2-0.7l2.4-4.4c0.1-0.2 0.5-0.3 0.7-0.2l12.9 7.1c0.3 0.1 0.3 0.4 0.2 0.7l-2.4 4.3c-0.1 0.3-0.4 0.4-0.7 0.2z" class="s39"/><path id="&lt;Path&gt;" d="m933.8 450.2l-18.1-9.9 8.9-16.3 18.1 9.9z" class="s39"/><path id="&lt;Path&gt;" d="m932.6 446.8l-13.2-7.2 5.9-10.8 13.2 7.2z" class="s39"/><path id="&lt;Path&gt;" d="m942.8 433.3l-10.4 19.2c-0.6 1-2.1 1.3-3.4 0.5l-5-2.7c1.3 0.7 2.8 0.4 3.3-0.6l10.5-19.1c1.2-2.2 5.6-8.9 4.5-11.5l0.8-1.5 3.3 1.8-0.8 1.5c1.2 2.6-1.6 10.3-2.8 12.4z" class="s36"/></g><g id="&lt;Group&gt;"><path id="&lt;Path&gt;" d="m880.3 457.1l-6.4 32.3c-0.6 3-3.5 5-6.6 4.4l-23-4.6c-3-0.6-4.9-3.5-4.3-6.5l6.4-32.3c3.3-16.5 10.9-31.8 22.1-44.4l1.5 0.3 3.3 0.7 3.6 0.7c5.5 15.9 6.7 32.9 3.4 49.4z" class="s40"/><path id="&lt;Path&gt;" d="m840.6 479.5l5.7-28.7 33.9 6.8-5.7 28.6z" class="s41"/><path id="&lt;Path&gt;" d="m880.3 457.1l-6.4 32.3c-0.6 3-3.5 5-6.6 4.4l-6.3-1.2c3.1 0.6 3.9-2 4.6-5.2l6.9-34.7c3-15.3 4.8-30.7 1.2-45.7l3.2 0.7c5.5 15.9 6.7 32.9 3.4 49.4z" class="s37"/><path id="&lt;Path&gt;" d="m879.4 400.5l-1.4 6.6c0 0.4-0.4 0.7-0.9 0.6l-8.8-1.7c-0.4-0.1-0.7-0.5-0.6-1l1.3-6.5c0.1-0.4 0.5-0.7 0.9-0.6l8.8 1.7c0.5 0.1 0.7 0.5 0.7 0.9z" class="s42"/><path id="&lt;Path&gt;" d="m879.4 400.5l-1.4 6.6c0 0.4-0.4 0.7-0.9 0.6l-3.3-0.7c0.4 0.1 0.8-0.2 0.9-0.6l1.3-6.5c0.1-0.5-0.2-0.9-0.6-1l3.3 0.7c0.5 0.1 0.7 0.5 0.7 0.9z" class="s43"/></g><g id="&lt;Group&gt;"><g id="&lt;Group&gt;"><path id="&lt;Path&gt;" d="m913.1 382l8.4-1.3 1 6.7-8.4 1.3z" class="s40"/><path id="&lt;Path&gt;" d="m913.8 386.4l-0.7-4.4 8.4-1.3 0.6 4z" class="s44"/><path id="&lt;Path&gt;" d="m911.9 376.3l9-1.4c0.5-0.1 0.9 0.2 0.9 0.6l1.1 6.8c0 0.4-0.3 0.8-0.7 0.9l-9 1.4c-0.5 0-0.9-0.3-1-0.7l-1-6.7c-0.1-0.5 0.2-0.9 0.7-0.9z" class="s42"/><path id="&lt;Path&gt;" d="m911.2 377.2c-0.1-0.5 0.2-0.9 0.7-0.9l2.7-0.5c-0.4 0.1-0.7 0.5-0.6 0.9l1 6.8c0.1 0.4 0.5 0.7 0.9 0.6l-2.7 0.5c-0.5 0-0.9-0.3-1-0.7z" class="s43"/><path id="&lt;Path&gt;" d="m917.9 385.6c3.8-0.6 7.4 0.4 10.2 2.4 2.8 2.1 4.8 5.2 5.4 8.9l9.3 60.3c0.2 1.3-0.7 2.5-1.9 2.7l-22.3 3.4c-1.3 0.2-2.5-0.7-2.7-1.9l-9.3-60.3c-1.2-7.4 3.9-14.4 11.3-15.5z" class="s40"/><path id="&lt;Path&gt;" d="m909.7 421l26.8-4.2 3.6 23.5-26.8 4.2z" class="s38"/><path id="&lt;Path&gt;" d="m913.3 444.1l26.8-4.2 0.3 1.8-26.8 4.2z" class="s44"/></g><path id="&lt;Path&gt;" d="m917.9 385.6q1.4-0.3 2.8-0.2c-5.9 2.2-9.7 8.4-8.7 14.9l9.3 60.2c0.2 1.3 1.4 2.2 2.7 2l16.9-2.6q0 0 0 0l-22.3 3.4c-1.3 0.2-2.5-0.7-2.7-1.9l-9.3-60.3c-1.2-7.4 3.9-14.4 11.3-15.5z" class="s37"/></g><g id="&lt;Group&gt;"><g id="&lt;Group&gt;"><g id="&lt;Group&gt;"><path id="&lt;Path&gt;" d="m894.6 429l4.5 15.8 5.4 15.3 4.3 12.2-13.7 6.2-6.4-11.2-8-14.1-9-13.8z" class="s45"/><path id="&lt;Path&gt;" d="m880.3 435.5l14.3-6.5 4.5 15.8 5.4 15.3 4.3 12.2-9.8 4.5z" class="s45"/><path id="&lt;Path&gt;" d="m898.6 486l-3.6-7.7 13.7-6.2 3.6 7.7z" class="s41"/><path id="&lt;Path&gt;" d="m911.9 479.1l1.2 2.5c0.1 0.3 0 0.6-0.3 0.8l-12.6 5.7c-0.3 0.2-0.7 0-0.8-0.3l-1.2-2.5z" class="s45"/><path id="&lt;Path&gt;" d="m899.1 444.8l1 2.8 2.7 7.7 1.7 4.8-15.8 7.2-2.5-4.4-4-7.1-1.5-2.6z" class="s41"/><path id="&lt;Path&gt;" d="m870.8 436.9l22.5-10.3 1.3 2.4-22.9 10.4z" class="s45"/></g></g><path id="&lt;Path&gt;" d="m875 435q0.7 1.2 1.3 2.3 1.9 3.4 3.9 6.6 2.3 3.8 4.7 7.6 0.8 1.3 1.6 2.5 0.4 0.6 0.7 1.2 0.3 0.5 0.7 1 1 1.6 2 3.1 1.9 2.9 3.7 5.7 0.1 0.1 0.1 0.2 2.1 3.2 4.1 6.4 0.2 0.4 0.5 0.7 1.1 1.8 2.2 3.5 0 0.1 0 0.1 0 0.1 0.1 0.1 0.9 1.5 1.8 3 1.1 1.9 2.2 3.7 0.8 1.4 1.6 2.7l-6 2.7c-0.3 0.2-0.7 0-0.8-0.3l-1.2-2.5-3.1-6.9-6.4-11.1-2.5-4.4-4-7.1-1.5-2.6-9-13.8-0.9-2.5z" class="s37"/></g><g id="&lt;Group&gt;"><path id="&lt;Path&gt;" d="m877.1 432.2l1.9 23.2c0.1 1.2-1.1 2.3-2.7 2.4l-15.9 1.3c-1.6 0.1-2.9-0.8-3-2l-1.9-23.1c-0.2-2.6 0.4-11.3 2.7-13.3l-0.1-1.8 14-1.1 0.1 1.8c2.6 1.6 4.7 10 4.9 12.6z" class="s35"/><path id="&lt;Path&gt;" d="m872.2 419.6l-14 1.1-0.2-2.2 14.1-1.2z" class="s35"/><path id="&lt;Path&gt;" d="m872.8 417.6l-15.5 1.2c-0.3 0.1-0.6-0.2-0.6-0.5l-0.5-5.2c0-0.3 0.3-0.6 0.6-0.6l15.5-1.3c0.3 0 0.6 0.2 0.6 0.5l0.5 5.3c0 0.3-0.2 0.6-0.6 0.6z" class="s34"/><path id="&lt;Path&gt;" d="m873.2 415.2l0.2 1.8c0 0.3-0.2 0.6-0.6 0.6l-15.5 1.2c-0.3 0.1-0.6-0.2-0.6-0.5l-0.3-3.1c5.6 0 11.2-0.1 16.8 0z" class="s46"/><path id="&lt;Path&gt;" d="m878.9 452.5l-21.9 1.8-1.6-19.7 21.9-1.8z" class="s34"/><path id="&lt;Path&gt;" d="m875.8 450.2l-15.9 1.3-1-13.1 15.8-1.3z" class="s35"/><path id="&lt;Path&gt;" d="m877.1 432.2l1.9 23.2c0.1 1.2-1.1 2.3-2.7 2.4l-6.1 0.5c1.6-0.1 2.8-1.2 2.7-2.4l-1.9-23.2c-0.2-2.6-0.2-11.2-2.8-12.8l-0.1-1.8 4-0.3 0.1 1.8c2.6 1.6 4.7 10 4.9 12.6z" class="s46"/></g></g><path id="&lt;Path&gt;" d="m926 530l-85.2-5.7-2.2-84.1 85 5.7z" class="s19"/><path id="&lt;Path&gt;" d="m926 530l-85.2-5.7-2.2-84.1 85 5.7z" class="s20"/><g id="&lt;Group&gt;"><path id="&lt;Path&gt;" d="m878.1 460.4q0.2 0.1 0.3 0.1 5.1 0.2 10.1 0.5 1.6 0 3.2 0.1-0.1 0.1-0.1 0.1 0 0-0.1 0-2 0.6-3.6 2c-1.2 1.1-2.2 2.3-3 3.7q-2.2 3.7-4.4 7.4-0.4 0.7-0.9 1.4 1.7 1.2 3.3 2.4 0 0 0 0-1.5 0-2.9-0.1-4.7-0.2-9.3-0.3c-0.2 0-0.2-0.1-0.3-0.2q-3-5.4-6-10.8 0-0.1-0.1-0.2 2 1.1 3.8 2.1 0.1 0 0.1 0 1.5-2.5 2.9-5c1-1.6 2.4-2.6 4.1-3.1 0.4 0 0.8-0.1 1.1-0.1q0.9 0 1.8 0z" class="s23"/><path id="&lt;Path&gt;" d="m911.3 491.6c0 0.3-0.1 0.6-0.2 0.9-0.8 2-2.2 3.2-4.1 4-1.3 0.6-2.7 0.7-4 0.7-0.9 0-1.8-0.1-2.8-0.1-0.1 0-0.2 0-0.3-0.2q-2.2-3.9-4.3-7.7-0.1-0.1-0.1-0.2c-1.3 0.6-2.5 1.2-3.7 1.8q0-0.1 0.1-0.2 3.1-5.3 6.3-10.7c0.1-0.2 0.2-0.5 0.4-0.5 0.2-0.1 0.5-0.1 0.7 0q6 0.3 11.9 0.6 0.1 0 0.3 0c-1.3 0.9-2.5 1.8-3.8 2.7q0.1 0.1 0.1 0.2 1.3 2.6 2.5 5.3 0.5 1 0.9 2c0.1 0.3 0.1 0.6 0.2 0.9q0 0.3-0.1 0.5z" class="s23"/><path id="&lt;Path&gt;" d="m856.5 488.7q0.1-0.1 0.1-0.2c0-0.4 0.1-0.7 0.3-1q2.6-4.7 5.3-9.4 0.1-0.2 0.2-0.5 5.7 3.9 11.4 7.7 0 0.1 0 0.1-3 5-6 10.1c-0.1 0.1-0.2 0.1-0.3 0.1-1.7 0-3.4-0.1-5.1-0.6-1.4-0.4-2.7-0.9-3.9-1.9-0.9-0.7-1.6-1.6-1.9-2.8q-0.1-0.5-0.1-0.9 0-0.4 0-0.7z" class="s23"/><path id="&lt;Path&gt;" d="m876.3 493q2.8 5.5 5.6 11.1c0 0.1 0 0.2-0.1 0.2q-2.9 4.9-5.9 9.8-0.3 0.5-0.6 1.1 0-0.5 0-1 0-1.6 0-3.2c0-0.2 0-0.3-0.2-0.3q-2.7-0.1-5.3-0.2c-0.4 0-0.9 0-1.3-0.1-2-0.5-3.5-1.5-4.4-3.4q-2.9-5.9-5.7-11.8-0.5-0.9-0.9-1.8 0.1 0 0.1 0c1.4 1.5 3.1 2.3 5 2.8 1.3 0.3 2.6 0.4 3.9 0.4q4.5 0.2 9 0.4 0.1 0 0.2 0 0.1 0 0.1-0.1 0.1-0.4 0.1-0.8 0.2-1.6 0.3-3.2 0.1 0.1 0.1 0.1z" class="s23"/><path id="&lt;Path&gt;" d="m910.1 495.6q-4 6.7-8 13.4c-0.4 0.6-0.9 1.1-1.5 1.5-1.3 0.8-2.7 1-4.2 1.1-0.9 0-1.8 0-2.6-0.1q-3.9-0.1-7.7-0.3-0.1 0-0.3 0 0.3-6.9 0.6-13.7 0.1 0 0.2 0 2.2 0 4.4 0.1 3 0.1 6 0.2 2.6 0.1 5.1 0.2c0.9 0.1 1.9 0.1 2.8 0 1.3-0.2 2.5-0.6 3.6-1.3 0.6-0.4 1.1-0.8 1.7-1.2q-0.1 0.1-0.1 0.1z" class="s23"/><path id="&lt;Path&gt;" d="m890.6 479.5q-2.9-5.1-5.7-10.2-0.2-0.2-0.1-0.3c1-1.7 2.1-3.3 3.5-4.7 0.9-0.9 1.9-1.7 3.1-2.2 1.6-0.6 3.1-0.6 4.6 0.3 0.3 0.3 0.7 0.6 1 1q2.4 4.1 4.9 8.3 0.4 0.7 0.8 1.4-6 3.3-12.1 6.5 0 0 0-0.1z" class="s23"/></g><path id="&lt;Path&gt;" d="m923.6 445.9l25.8-19.3 2.3 76.6-25.7 26.8z" class="s19"/><path id="&lt;Path&gt;" d="m923.7 447.5l-85-5.7-0.1-1.6 85 5.7z" class="s47"/><path id="&lt;Path&gt;" d="m949.7 427.9l-26 19.7-0.1-1.7 25.7-19.4z" class="s48"/></g><path id="&lt;Path&gt;" d="m842.2 486.9c0.5 0.7 0.8 1 0.8 1 5.3 3.2 54.9 0.2 54.9 0.2q-0.1 0.1-0.1 0.1c1.9-0.4 3.8-1.1 5.1-1.8 1.1-0.6 3.7-0.8 4.8-2.1 0.8-1 3.8-3.7 5.3-4.4 1.6-0.8 3.7-2 4.5-1.2 0.9 0.7 0.4 1.6-0.6 2.3-1.1 0.7-2.9 3.9-3 4.4-0.1 0.6 3.4 0.5 6.2-0.4 2.8-0.8 6-3.3 7.6-3.7 1.5-0.5 1.8 1.9 1.8 1.9 0 0 1.4 1.2 1.4 2.3-0.1 1.1-0.2 2.3-0.6 3.3-0.3 0.9-1.4 1.3-1.5 2.4-0.1 1.1-0.5 2.3-2 2.9-1.4 0.6-11.3 3.7-13.2 4.1-1.4 0.3-8.5-0.4-14.2-0.5 0.9 2.6 1.9 4.1 1.9 4.1-15.4 3-40.8 6.9-57.6 6.3-0.5-7.1-1.1-14.1-1.5-21.2z" class="s20"/><g id="&lt;Group&gt;"><path id="&lt;Path&gt;" d="m891.3 486.3c2.3 0.5 7.1-0.7 9.6-1.8 1.1-0.5 3.7-0.5 4.9-1.7 0.9-1 4-3.5 5.6-4.2 1.6-0.7 3.8-1.7 4.6-0.9 0.8 0.8 0.2 1.6-0.8 2.2-1.1 0.7-3.1 3.8-3.2 4.3-0.2 0.6 3.4 0.7 6.2 0 2.8-0.7 6.1-3 7.7-3.4 1.6-0.4 1.8 2 1.8 2 0 0 1.3 1.4 1.2 2.5-0.2 1-0.3 2.3-0.8 3.2-0.4 0.9-1.5 1.3-1.6 2.3-0.1 1.1-0.7 2.3-2.2 2.8-1.4 0.6-11.5 3-13.4 3.3-1.9 0.3-13.9-1.8-19.3-1.3 0 0-0.8-0.1-0.9-3.3-0.2-3.2 0.6-6 0.6-6z" class="s24"/><path id="&lt;Path&gt;" d="m825.5 451.5c7.2 19.3 15.5 31 15.5 31 5.2 3.6 54.8 3.4 54.8 3.4-1 7.6 2.7 14 2.7 14-17.6 2.2-47.8 5.1-63.7 2-4.5-0.8-5.4-1.7-6.8-3.1-14.5-14.7-38.1-54.3-36.9-66.7 1.2-12.4 9.1-14.7 14.8-10 6 5 13.7 13.3 19.6 29.4z" class="s27"/></g></g></g></g></svg>